<svg width="17" height="17" viewBox="0 0 17 17" fill="none" xmlns="http://www.w3.org/2000/svg">
<path d="M14.7217 12.6892C15.8559 12.6892 16.7763 13.6087 16.7764 14.7429C16.7764 15.8772 15.856 16.7966 14.7217 16.7966H2.05371C0.919469 16.7966 0 15.8772 0 14.7429C0.000103015 13.6088 0.919533 12.6893 2.05371 12.6892H14.7217Z" fill="white"/>
<path d="M2.60059 6.23015C2.60059 5.51192 3.18282 4.92969 3.90104 4.92969H12.9176C13.6358 4.92969 14.218 5.51192 14.218 6.23015V8.00744C14.218 8.12714 14.121 8.22418 14.0013 8.22418H2.81733C2.69763 8.22418 2.60059 8.12714 2.60059 8.00744V6.23015Z" fill="white"/>
<path d="M2.60059 9.35102C2.60059 9.23132 2.69763 9.13428 2.81733 9.13428H14.0013C14.121 9.13428 14.218 9.23132 14.218 9.35102V11.5618C14.218 11.6815 14.121 11.7785 14.0013 11.7785H2.81733C2.69763 11.7785 2.60059 11.6815 2.60059 11.5618V9.35102Z" fill="white"/>
<path d="M4.83005 7.06124C4.7702 6.95757 4.80572 6.82502 4.90938 6.76516L15.8784 0.432199C15.9821 0.372347 16.1146 0.407866 16.1745 0.511533L16.7489 1.50647C16.8088 1.61014 16.7732 1.7427 16.6696 1.80255L5.70056 8.13552C5.59689 8.19537 5.46433 8.15985 5.40448 8.05618L4.83005 7.06124Z" fill="white"/>
</svg>
