<svg width="18" height="16" viewBox="0 0 18 16" fill="none" xmlns="http://www.w3.org/2000/svg">
<path d="M14.729 11.6892C15.8632 11.6892 16.7836 12.6087 16.7837 13.7429C16.7837 14.8772 15.8633 15.7966 14.729 15.7966H2.06104C0.926793 15.7966 0.00732422 14.8772 0.00732422 13.7429C0.00742723 12.6088 0.926857 11.6893 2.06104 11.6892H14.729Z" fill="white"/>
<path d="M2.60791 5.23039C2.60791 4.51217 3.19015 3.92993 3.90837 3.92993H12.9249C13.6431 3.92993 14.2253 4.51217 14.2253 5.23039V7.00768C14.2253 7.12739 14.1283 7.22443 14.0086 7.22443H2.82465C2.70495 7.22443 2.60791 7.12739 2.60791 7.00768V5.23039Z" fill="white"/>
<path d="M2.60791 8.35126C2.60791 8.23156 2.70495 8.13452 2.82465 8.13452H14.0086C14.1283 8.13452 14.2253 8.23156 14.2253 8.35126V10.562C14.2253 10.6817 14.1283 10.7788 14.0086 10.7788H2.82465C2.70495 10.7788 2.60791 10.6817 2.60791 10.562V8.35126Z" fill="white"/>
<path d="M4.5416 5.31041C4.49489 5.20019 4.54638 5.07298 4.6566 5.02627L16.3187 0.0844664C16.4289 0.0377621 16.5561 0.0892491 16.6028 0.199466L17.0511 1.25727C17.0978 1.36749 17.0463 1.4947 16.9361 1.5414L5.27397 6.48321C5.16376 6.52992 5.03655 6.47843 4.98984 6.36821L4.5416 5.31041Z" fill="white"/>
</svg>
