<svg width="17" height="17" viewBox="0 0 17 17" fill="none" xmlns="http://www.w3.org/2000/svg">
<path d="M14.7217 12.6892C15.8559 12.6892 16.7763 13.6087 16.7764 14.7429C16.7764 15.8772 15.856 16.7966 14.7217 16.7966H2.05371C0.919469 16.7966 0 15.8772 0 14.7429C0.000103015 13.6088 0.919533 12.6893 2.05371 12.6892H14.7217Z" fill="white"/>
<path d="M2.60059 6.23015C2.60059 5.51192 3.18282 4.92969 3.90104 4.92969H12.9176C13.6358 4.92969 14.218 5.51192 14.218 6.23015V8.00744C14.218 8.12714 14.121 8.22418 14.0013 8.22418H2.81733C2.69763 8.22418 2.60059 8.12714 2.60059 8.00744V6.23015Z" fill="white"/>
<path d="M2.60059 9.35102C2.60059 9.23132 2.69763 9.13428 2.81733 9.13428H14.0013C14.121 9.13428 14.218 9.23132 14.218 9.35102V11.5618C14.218 11.6815 14.121 11.7785 14.0013 11.7785H2.81733C2.69763 11.7785 2.60059 11.6815 2.60059 11.5618V9.35102Z" fill="white"/>
<path d="M7.15326 6.68134C7.06862 6.59669 7.06862 6.45946 7.15326 6.37482L13.3748 0.153271C13.4594 0.0686275 13.5967 0.0686273 13.6813 0.153271L14.4937 0.965637C14.5783 1.05028 14.5783 1.18751 14.4937 1.27216L8.27215 7.4937C8.1875 7.57835 8.05027 7.57835 7.96563 7.4937L7.15326 6.68134Z" fill="white"/>
</svg>
